<svg xmlns="http://www.w3.org/2000/svg" viewBox="0 0 35 34.432"><defs><style>.cls-1{fill:#bdc5e4}</style></defs><g id="レイヤー_2" data-name="レイヤー 2"><g id="レイヤー_1-2" data-name="レイヤー 1"><path class="cls-1" d="M12.85.36A17.493 17.493 0 000 17.216h6C6 9.493 8.857 2.91 12.85.36zM17.5.216v17H27c0-9.374-4.262-17-9.5-17z"/><path class="cls-1" d="M28 17.216h7A17.492 17.492 0 0020.559 0C24.86 2.25 28 9.115 28 17.216zm-11.5-17c-5.238 0-9.5 7.626-9.5 17h9.5zm0 34v-16H7.028c.292 8.908 4.422 16 9.472 16zm1 0c5.05 0 9.18-7.092 9.472-16H17.5z"/><path class="cls-1" d="M20.559 34.432a17.48 17.48 0 0014.39-16.216H27.97c-.247 7.66-3.289 14.059-7.411 16.216zM6.03 18.216H.05a17.482 17.482 0 0012.8 15.856c-3.818-2.439-6.585-8.57-6.82-15.856z"/></g></g></svg>