<?xml version="1.0" encoding="utf-8"?>
<!-- Generator: Adobe Illustrator 27.5.0, SVG Export Plug-In . SVG Version: 6.00 Build 0)  -->
<svg version="1.1" id="_共通ロゴ2のコピー" xmlns="http://www.w3.org/2000/svg" xmlns:xlink="http://www.w3.org/1999/xlink"
	 x="0px" y="0px" width="390px" height="67px" viewBox="0 0 390 67" style="enable-background:new 0 0 390 67;"
	 xml:space="preserve">
<style type="text/css">
	.st0{fill:#007FC4;}
	.st1{fill:#F8BB00;}
	.st2{fill:#FFFFFF;}
	.st3{fill:#FABD00;}
	.st4{fill:#1779BA;}
</style>
<rect width="390" height="67"/>
<g>
	<g>
		<g>
			<path class="st0" d="M100.8,33.1c0-0.6-0.5-1.1-1.1-1.1c-0.1,0-0.2,0-0.3,0c-9.8,2-20,2.8-30.4,2.3c-3.2-0.2-6.4,0-9.5,0.2
				c-0.2,0-0.5,0-0.7,0.1c-2.5,0.3-4.9,1.5-6.7,3.3c-1.6,1.6-2.8,3.7-3.3,5.9c-0.6,2.7-0.2,5.5,1,8c1.1,2.4,2.9,4.5,5.1,6.1
				c2.4,1.6,5,2.9,7.8,3.7c1.7,0.5,3.3,0.8,5.1,1.1c0-0.7,1.1-1.8,1.1-2.3s-0.4-1-0.9-1c-2.9,0.1-5,0-7.6-1c-2.8-1-5.2-2.7-7.2-4.9
				c-1-1.1-1.7-2.2-2.2-3.5s-0.7-2.7-0.6-4.2c0.3-4.7,3.9-8.8,8.6-9.4c2.6-0.4,5.3,0.3,7.4,1.8c1.1,0.8,2,1.8,2.7,3
				c0.8,1.3,1.4,2.8,1.9,4.2c1,3.1,1,6.5,0.6,9.7c-0.2,1.4-0.5,2.7-0.8,4c-0.2,0.7-0.5,1.5-0.8,2.2c-0.1,0.1-0.1,0.3-0.1,0.4
				c0,0.6,0.5,1.1,1.1,1.1c0.1,0,0.2,0,0.3,0c7.2,0,13.9-2.6,19-6.9l0,0c0.2-0.2,0.3-0.5,0.3-0.8c0-0.2-0.1-0.4-0.2-0.6
				c-1.9-3.3-6.1-8.1-6.1-8.1s4.7,4.2,8.1,6.1c0.2,0.1,0.4,0.2,0.6,0.2c0.3,0,0.6-0.1,0.8-0.3l0,0c4.3-5.1,6.9-11.7,6.9-19
				C100.7,33.3,100.7,33.2,100.8,33.1L100.8,33.1z"/>
			<path class="st1" d="M47.5,46.6c-1.2-2.6-1.9-5.4-2.1-8.2c0-0.4,0-0.9,0-1.3c0-0.5-0.4-1-1-1c-0.6,0-1.7,1-2.4,1
				c0.8,6.2,3.6,12.1,8,16.7c2.1,2.2,4.8,3.9,7.8,4.8c2.6,0.7,5.3,0.4,7.7-0.8c1.1-0.6,2.2-1.4,3.1-2.3c0.9-1,1.6-2.2,2.3-3.4
				c0.7-1.3,1.3-2.6,1.8-3.9c0.6-1.4,1.1-2.9,1.7-4.2c2.4-5.2,5.8-10,10.3-13.6c2.2-1.7,4.7-3.2,7.3-4.4c1.3-0.6,2.7-1.1,4-1.5
				c0.7-0.2,1.3-0.4,2-0.5c0.6-0.2,0.9-0.8,0.7-1.4c-1.7-4.2-4.4-8-7.7-11.1c0,0,0,0-0.1-0.1c-0.2-0.2-0.4-0.3-0.7-0.3
				c-0.3,0-0.6,0.2-0.8,0.3C84,15.2,80,21.5,80,21.5s2.1-5.4,6.7-12.1c0.1-0.2,0.2-0.4,0.2-0.6c0-0.4-0.2-0.7-0.5-0.9
				c0,0-0.1,0-0.1-0.1c-2.8-1.6-5.9-2.8-9-3.4c-2.3-0.5-4.7-0.6-7.1-0.5l0,0l0,0c-0.6,0-1,0.5-1.1,1.1c-0.3,7.7,1.2,21.1,1.2,21.1
				S67.6,13,64.9,5.7c-0.2-0.4-0.6-0.8-1.1-0.8c-0.1,0-0.1,0-0.2,0l0,0C63.3,5,63.1,5,62.9,5.1C58.5,6.4,54.3,8.8,51,12
				c-0.6,0.5-1.1,1.1-1.7,1.7l0,0c-0.2,0.2-0.3,0.5-0.3,0.7s0.1,0.6,0.3,0.8c5.8,4.4,10.1,9.5,10.1,9.5s-5.5-4.1-12.1-6.7
				c-0.2-0.1-0.4-0.2-0.6-0.2c-0.4,0-0.7,0.2-0.9,0.5l0,0c-1,1.6-1.8,3.3-2.4,5.1c-0.8,2.2-1.3,4.6-1.6,7c-0.1,0.6-0.1,1.2,0.5,1.6
				c0.2,0.1,0.5,0.2,0.8,0.1c0.4-0.1,0.8-0.2,1.2-0.2c1.6-0.3,3.1-0.4,4.7-0.4c3.2,0,6.3,0.6,9.3,1.7c2.7,1,5.2,2.6,7.1,4.9
				c3.6,4.2,5.5,11.5,1.4,16c-1.9,2.1-4.7,3.1-7.4,2.8c-1.4-0.1-2.7-0.6-3.9-1.3c-1.1-0.6-2.2-1.3-3.2-2.2
				C50.3,51.6,48.6,49.2,47.5,46.6L47.5,46.6z"/>
		</g>
		<g>
			<path class="st2" d="M173.6,31.4c0-0.5,2.7-0.1,4,0.3c1,0.3,2.6,0.8,4.3,2.1c1,0.7,2.2,2.1,2.2,3.7c0,1.6-1,2.4-2.1,2.4
				c-0.6-0.1-1.3-0.5-1.9-1.1c-0.6-0.6-1-1.7-2.7-3.7C175.5,33,173.6,31.7,173.6,31.4L173.6,31.4z"/>
			<path class="st2" d="M171.8,15.8v-3l1.3-0.4l0,0c0.2,0,0.3-0.2,0.3-0.4s-0.1-0.3-0.3-0.4l0,0l-6.1-0.9v5.1h-13.4l0.4,0.9h31.6
				c0,0,0.4-0.5,0-0.9s-3.7-2.4-3.7-2.4l-2.2,2.4L171.8,15.8L171.8,15.8z"/>
			<path class="st2" d="M166.4,32.7L166.4,32.7l-5.4-1.9c-2,3.3-3.9,6-6.8,8.5l0,0c-0.1,0.1-0.1,0.1-0.1,0.2c0,0.2,0.1,0.3,0.3,0.3
				h0.1l0,0l0,0l0,0c2.6-0.9,6.3-3.3,10.7-6.3h1.1c0.2,0,0.4-0.2,0.4-0.4C166.6,32.8,166.5,32.7,166.4,32.7L166.4,32.7z"/>
			<path class="st2" d="M225.7,20.2c-0.5-0.5-4.1-2.7-4.1-2.7l-2.3,2.7h-8v-7.4l1.3-0.4l0,0c0.2,0,0.3-0.2,0.3-0.4s-0.1-0.3-0.3-0.4
				l0,0l-6.4-0.9v9.5h-12.3l0.4,0.9h11.9c-0.1,4.5-1.1,8.1-2.7,10.6c-1.9,3.2-4.9,6.2-9.7,8.9l0,0c0,0,0,0-0.1,0l0,0
				c-0.1,0.1-0.1,0.1-0.1,0.2c0,0.2,0.1,0.3,0.3,0.3h0.1l0,0c5.7-1.6,10.4-4.2,12.8-7.4c2-2.7,3.5-5.7,3.9-9.7
				c0.4,3.5,1.3,6.3,2.6,8.4c1.7,3,4.4,5.8,8.2,8.2h0.1h0.1c0.1,0,0.1,0,0.2-0.1c0.1-0.1,0.1-0.2,0.2-0.3c0.2-1.4,2.1-2.6,3.4-3.1
				c-4.4-2.5-8.1-5.4-9.8-7.7c-2.1-2.7-3.6-5.5-4.4-8.5h14.4C225.7,21.1,226.2,20.7,225.7,20.2L225.7,20.2z"/>
			<path class="st2" d="M242.4,11.9c0,0.1,0,0.2,0.1,0.3c0.4,0.6,1.4,2.1,2,3.1c0.7,1.2,0.8,1.7,1.2,2.1s1.7,0.7,2.5,0.1
				c0.8-0.5,0.9-1.7,0.6-2.5c-0.3-0.9-1.6-2.2-2.9-2.8C244.5,11.8,242.6,11.5,242.4,11.9L242.4,11.9z"/>
			<path class="st2" d="M249,10.8c-0.1,0.1-0.1,0.2,0,0.4c0.4,0.6,1.4,1.7,2.1,2.9c0.9,1.5,1,2.3,1.5,2.8c0.8,0.8,2.2,0.6,2.6,0.2
				c0.7-0.7,0.9-1.8,0.6-2.7c-0.4-1.3-1.6-2.5-3.4-3.1C250.9,10.7,249.3,10.6,249,10.8L249,10.8z"/>
			<path class="st2" d="M241.9,16.2c0.7,0.1,1.2,3,0.5,5.5c-0.6,2.1-2,3-3.6,2.7c-1.2-0.3-1.6-1.4-1.3-2.6c0.3-1.1,1.3-1.9,2.1-2.6
				c0.7-0.7,1.6-1.9,1.8-2.5C241.5,16.3,241.6,16.1,241.9,16.2L241.9,16.2z"/>
			<path class="st2" d="M255.5,30.7v7.9c0,1.9-3.7,2.5-4.9,2.5c-0.6,0-0.6-0.6-0.8-1.1c-0.2-0.4-0.9-1-4.6-1.3l-0.3-0.7h5.9v-7.3
				h-13.2l-0.4-0.9h13.6v-3.6l5.6,0.6c0.5,0.3-0.1,1.2-0.9,1.5v1.4h7.2l2.5-2.7c0,0,3,2.3,3.5,2.7c0.5,0.5,0,0.9,0,0.9L255.5,30.7
				L255.5,30.7z"/>
			<path class="st2" d="M269.7,19.3c0-0.1-0.1-0.3-0.2-0.3l0,0l0,0l0,0l-4.9-2.4l-1.4,1.9h-4.7l5.4-4.8l1.5-0.2
				c0.2,0,0.4-0.2,0.4-0.4s-0.1-0.3-0.2-0.4l0,0l-5.6-2c-0.9,2.2-2,5-3.3,7.7h-14.3v0.9l21.1,0.1l-1.4,4.4l0.6,0.2l5.4-4.2l1.3-0.1
				l0,0C269.5,19.7,269.7,19.5,269.7,19.3L269.7,19.3z"/>
			<path class="st2" d="M263.5,23.8L263.5,23.8l-4.7-3.1l-1.4,1.5h-14.1l0.4,0.9h13.6l-2.6,4.2c0.4,0.1,0.1,0.9,0.8,1l6.5-3.9
				l1.4,0.1l0,0l0,0c0.2,0,0.4-0.2,0.4-0.4C263.7,24,263.6,23.9,263.5,23.8z"/>
			<path class="st2" d="M136.2,33.8c-2.3-1-4.1-2.3-5.4-3.9h5.9v1.4l4.5-0.7v-9.4l1.1-0.5c0.2-0.1,0.3-0.2,0.3-0.4
				c0-0.2-0.1-0.3-0.3-0.4l0,0l-4.4-2.5l-1.5,1.9h-5.9v-3.4h13.6c0,0,0.4-0.5,0-1c-0.4-0.5-3.5-2.2-3.5-2.2l-1.9,2.2h-8.3v-2.2
				l1.3-0.4l0,0c0.2,0,0.3-0.2,0.3-0.4s-0.1-0.3-0.3-0.4l0,0l-6-0.9V15h-13.5l0.4,1h13.2v3.4h-6.2l-4.3-1.8v13.7l4.5-0.7v-0.7h4.6
				c-3.6,4.4-7.8,7.1-12,9.6l0,0c-0.1,0-0.2,0.1-0.2,0.3s0.1,0.3,0.3,0.3h0.1l0,0c3.9-1.3,8.4-2.5,13.2-6.3v7.4l4.7-0.6v-9.2
				c0.7,1.5,1.5,2.4,2.4,3.5c2,2.4,4.9,3.9,8.6,5.3c0.6-1.9,1.4-3.3,2.8-3.7l0.2-0.4C141.6,35.3,138.8,35,136.2,33.8L136.2,33.8z
				 M125.8,29h-6v-4.1h6V29z M125.8,24h-6v-3.8h6V24z M130.5,20.2h6.2V24h-6.2V20.2z M130.5,24.9h6.2V29h-6.2V24.9z"/>
			<path class="st2" d="M182.6,20.5L182.6,20.5l-4.5-2.6l-1.5,1.9h-14l-4.5-1.7V30l4.7-0.7v-0.8h4.5V38h-5.9l0.3,0.7
				c3.7,0.3,4.4,0.9,4.6,1.3c0.3,0.5,0.2,1.1,0.8,1.1c1.1,0,4.9-0.6,4.9-2.5v-9.9h4.8V30l4.7-0.7v-7.4l1.1-0.5
				c0.2-0.1,0.3-0.2,0.3-0.4C182.8,20.7,182.7,20.6,182.6,20.5L182.6,20.5z M176.8,27.7h-14.1v-6.9h14.1
				C176.8,20.8,176.8,27.7,176.8,27.7z"/>
		</g>
		<g>
			<g>
				<path class="st2" d="M126.8,50.5L126.8,50.5l0.1-0.3c0-1.7,0-2.1,0-2.4c0-0.4-0.1-0.6-0.5-0.6c-0.1,0-0.3,0-0.4,0
					s-0.2,0-0.2-0.1s0.1-0.1,0.2-0.1h2.9c0.2,0,0.2,0,0.2,0.1s-0.1,0.1-0.2,0.1c-0.1,0-0.2,0-0.3,0c-0.3,0.1-0.4,0.3-0.4,0.6
					c0,0.4,0,6.4,0,6.9c0,0.3,0.1,0.6,0.4,0.6c0.2,0,0.4,0,0.6,0c0.1,0,0.2,0,0.2,0.1s-0.1,0.1-0.2,0.1h-3.1c-0.2,0-0.2,0-0.2-0.1
					s0-0.1,0.2-0.1s0.3,0,0.4,0c0.2,0,0.3-0.3,0.3-0.6c0.1-0.5,0.1-1.4,0.1-2.4v-1c0,0,0-0.1-0.1-0.1h-4.1c0,0-0.1,0-0.1,0.1v1
					c0,1.1,0,2,0.1,2.4c0,0.3,0.1,0.6,0.4,0.6c0.2,0,0.4,0,0.6,0c0.1,0,0.2,0,0.2,0.1s-0.1,0.1-0.2,0.1h-3.1c-0.1,0-0.2,0-0.2-0.1
					s0-0.1,0.2-0.1s0.3,0,0.4,0c0.2,0,0.3-0.3,0.3-0.6c0.1-0.5,0.1-6.5,0-6.9c0-0.4-0.1-0.6-0.5-0.6c-0.1,0-0.3,0-0.4,0
					s-0.2,0-0.2-0.1s0.1-0.1,0.2-0.1h2.9c0.2,0,0.2,0,0.2,0.1s-0.1-0.1-0.2-0.1s-0.2,0-0.3,0c-0.3,0.1-0.4,0.3-0.4,0.6
					c0,0.4,0,0.7,0,2.4v0.2c0,0.1,0,0.1,0.1,0.1L126.8,50.5L126.8,50.5z"/>
				<path class="st2" d="M140,45.2c0-0.5-0.1-0.8-0.6-0.9c-0.1,0-0.4,0-0.6,0s-0.2,0-0.2-0.1s0.1-0.1,0.3-0.1h3.9
					c0.2,0,0.3,0,0.3,0.1s-0.1,0.1-0.2,0.1c-0.2,0-0.2,0-0.4,0c-0.4,0.1-0.5,0.3-0.5,0.9c0,0.5,0,5.4,0,5.4c0,2.2,0.4,3.1,1.1,3.8
					c0.6,0.6,1.3,0.6,1.8,0.6c0.6,0,1.4-0.2,2-0.8c0.8-0.8,0.8-2.2,0.8-3.8c0,0,0-4.7,0-5.1c0-0.5-0.1-0.8-0.6-0.9
					c-0.1,0-0.4,0-0.5,0s-0.2,0-0.2-0.1s0.1-0.1,0.3-0.1h3.3c0.2,0,0.3,0,0.3,0.1s-0.1,0.1-0.3,0.1s-0.2,0-0.4,0
					c-0.4,0.1-0.5,0.3-0.5,0.9c0,0.5,0,4.9,0,4.9c0,1.7-0.2,3.5-1.4,4.6c-1,0.9-2.1,1.1-3,1.1c-0.8,0-2.2,0-3.2-1.1
					c-0.7-0.7-1.3-1.8-1.3-4C140,50.6,140,45.6,140,45.2L140,45.2z"/>
				<path class="st2" d="M190.4,47.7c0-0.4-0.1-0.6-0.4-0.6c-0.1,0-0.3,0-0.4,0c-0.1,0-0.2,0-0.2-0.1s0.1-0.1,0.3-0.1h2.7
					c0.1,0,0.2,0,0.2,0.1s-0.1,0.1-0.2,0.1s-0.2,0-0.3,0c-0.3,0.1-0.4,0.3-0.4,0.6c0,0.4,0,6.5,0,6.9c0,0.3,0.1,0.5,0.4,0.6
					c0.2,0,0.4,0,0.6,0c0.1,0,0.2,0,0.2,0.1s-0.1,0.1-0.2,0.1h-3.1c-0.1,0-0.2,0-0.2-0.1s0-0.1,0.2-0.1s0.3,0,0.4,0
					c0.2,0,0.3-0.2,0.3-0.6C190.4,54.2,190.4,48.1,190.4,47.7L190.4,47.7z"/>
				<path class="st2" d="M204.6,52.5c0-0.6-0.1-0.9-0.2-1.2c-0.1-0.2-1.5-2.7-1.9-3.3c-0.3-0.4-0.5-0.7-0.7-0.8
					c-0.1-0.1-0.3-0.1-0.5-0.1c-0.1,0-0.2,0-0.2-0.1s0.1-0.1,0.2-0.1h2.5c0.1,0,0.2,0,0.2,0.1s-0.1,0.1-0.2,0.1
					c-0.1,0-0.2,0.1-0.2,0.2c0,0.1,0.1,0.2,0.1,0.4c0.2,0.3,1.7,3.1,1.8,3.4c0.1-0.3,1.5-2.8,1.6-3.1c0.1-0.2,0.2-0.4,0.2-0.6
					c0-0.1,0-0.2-0.2-0.3c-0.1,0-0.2,0-0.2-0.1s0.1-0.1,0.2-0.1h2.2c0.1,0,0.2,0,0.2,0.1s-0.1,0.1-0.2,0.1c-0.1,0-0.3,0-0.5,0.1
					s-0.3,0.2-0.6,0.6c-0.4,0.5-1.9,3.1-2.1,3.6c-0.2,0.4-0.2,0.8-0.2,1.1c0,0,0,1.6,0,2.1c0,0.3,0.1,0.6,0.4,0.6c0.2,0,0.4,0,0.5,0
					s0.2,0,0.2,0.1s-0.1,0.1-0.2,0.1h-3c-0.2,0-0.2,0-0.2-0.1s0.1-0.1,0.2-0.1c0.2,0,0.3,0,0.4,0c0.2,0,0.3-0.3,0.3-0.6
					C204.6,54.1,204.6,52.5,204.6,52.5L204.6,52.5z"/>
				<path class="st2" d="M211.3,51.2c0-2,1.2-4.5,4.5-4.5c2.7,0,4.4,1.7,4.4,4.3s-1.7,4.7-4.5,4.7C212.6,55.6,211.3,53.2,211.3,51.2
					 M218.7,51.4c0-2.6-1.5-4.1-3.3-4.1c-1.3,0-2.6,0.7-2.6,3.6c0,2.4,1.3,4.3,3.4,4.3C217,55.1,218.7,54.7,218.7,51.4z"/>
				<path class="st2" d="M236.2,51.2c0-2,1.2-4.5,4.5-4.5c2.7,0,4.4,1.7,4.4,4.3s-1.7,4.7-4.5,4.7C237.5,55.6,236.2,53.2,236.2,51.2
					 M243.5,51.4c0-2.6-1.5-4.1-3.3-4.1c-1.3,0-2.6,0.7-2.6,3.6c0,2.4,1.3,4.3,3.4,4.3C241.9,55.1,243.5,54.7,243.5,51.4z"/>
				<path class="st2" d="M252.9,47c0.1,0,0.3,0.1,0.5,0.1c0.2,0.1,0.5,0.4,0.7,0.8c0.4,0.6,1.8,3.1,1.9,3.3c0.1,0.3,0.2,0.6,0.2,1.2
					c0,0,0,1.6,0,2.1c0,0.3-0.1,0.6-0.3,0.6c-0.1,0-0.2,0-0.4,0c-0.1,0-0.2,0-0.2,0.1s0.1,0.1,0.2,0.1h3c0.1,0,0.2,0,0.2-0.1
					s-0.1-0.1-0.2-0.1c-0.2,0-0.4,0-0.5,0c-0.3,0-0.4-0.3-0.4-0.6c0-0.5,0-2.1,0-2.1c0-0.4,0-0.7,0.2-1.1c0.2-0.5,1.7-3.2,2.1-3.6
					c0.2-0.3,0.4-0.4,0.6-0.6c0.2-0.1,0.4-0.1,0.5-0.1s0.2,0,0.2-0.1s-0.1-0.1-0.2-0.1h-2.2c-0.1,0-0.2,0-0.2,0.1s0.1,0.1,0.2,0.1
					c0.2,0,0.2,0.2,0.2,0.3s0,0.3-0.2,0.6c-0.2,0.4-1.5,2.9-1.6,3.1c-0.2-0.3-1.7-3.1-1.8-3.4c-0.1-0.2-0.1-0.3-0.1-0.4
					s0.1-0.2,0.2-0.2c0.2,0,0.2-0.1,0.2-0.1s-0.1-0.1-0.2-0.1h-5c-0.1,0-0.2,0-0.2,0.1s0,0.1,0.1,0.1s0.2,0.1,0.2,0.2
					c0,0.2-0.2,0.5-0.5,0.9s-1.9,2.1-2.3,2.5h-0.1v-0.5c0-1.7,0-2.1,0-2.4c0-0.4,0.1-0.6,0.4-0.6c0.1,0,0.2,0,0.3,0s0.1,0,0.1-0.1
					s-0.1-0.1-0.2-0.1h-2.8c-0.2,0-0.2,0-0.2,0.1s0.1,0.1,0.2,0.1c0.2,0,0.3,0,0.4,0c0.4,0.1,0.4,0.3,0.5,0.6c0,0.4,0,6.4,0,6.9
					c0,0.3-0.1,0.6-0.3,0.6c-0.1,0-0.2,0-0.4,0c-0.1,0-0.2,0-0.2,0.1s0.1,0.1,0.2,0.1h2.9c0.1,0,0.2,0,0.2-0.1s-0.1-0.1-0.1-0.1
					c-0.1,0-0.4,0-0.5,0c-0.3,0-0.4-0.3-0.4-0.6c0-0.5,0-1.4,0-2.4v-1h0.1l0.1,0.2c0.2,0.3,2.4,3,2.9,3.4s0.8,0.7,1.3,0.7
					c0.2,0,0.4,0,0.7,0h1c0.2,0,0.3,0,0.3-0.1s-0.1-0.1-0.1-0.1c-0.1,0-0.3,0-0.7-0.2c-0.6-0.2-1.1-0.8-1.6-1.2
					c-0.4-0.4-2.6-2.8-3-3.4c0.4-0.4,2-2.1,2.3-2.5c0.5-0.5,0.8-0.7,1.2-0.9C252.5,47.1,252.8,47.1,252.9,47L252.9,47z"/>
				<path class="st2" d="M260.3,51.2c0-2,1.2-4.5,4.5-4.5c2.7,0,4.4,1.7,4.4,4.3s-1.7,4.7-4.5,4.7C261.6,55.6,260.3,53.2,260.3,51.2
					 M267.7,51.4c0-2.6-1.5-4.1-3.3-4.1c-1.3,0-2.6,0.7-2.6,3.6c0,2.4,1.3,4.3,3.4,4.3C266,55.1,267.7,54.7,267.7,51.4z"/>
			</g>
			<path class="st2" d="M185.9,56.5c-1-0.1-1.9-0.3-2.6-1.1c-0.7-0.7-2-2.5-2.7-3.9c1.1-0.9,1.4-1.7,1.4-2.6c0-0.8-0.4-1.4-0.7-1.6
				c-0.6-0.4-1.3-0.5-2-0.5h-3c-0.2,0-0.2,0-0.2,0.1s0.1,0.1,0.2,0.1c0.2,0,0.3,0,0.4,0c0.4,0.1,0.4,0.3,0.5,0.6c0,0.4,0,0.7,0,2.4
				v2c0,1.1,0,2-0.1,2.4c0,0.3-0.1,0.6-0.3,0.6c-0.1,0-0.2,0-0.4,0c-0.1,0-0.2,0-0.2,0.1s0.1,0.1,0.2,0.1h2.9c0.1,0,0.2,0,0.2-0.1
				s0-0.1-0.1-0.1s-0.4,0-0.5,0c-0.3,0-0.4-0.3-0.4-0.6c-0.1-0.5-0.1-1.4-0.1-2.4l0,0c0-0.1,0-0.1,0.1-0.1h0.9c0.1,0,0.2,0,0.2,0.1
				c0.1,0.3,0.7,1.5,1.2,2.3s1,1.4,1.5,1.8c0.6,0.5,1.2,0.6,1.9,0.7c0.9,0.1,1.6,0,1.8-0.1c0.2,0,0.3-0.1,0.3-0.2
				C186.3,56.4,186.1,56.5,185.9,56.5L185.9,56.5z M180.1,51.2c-0.2,0.1-0.3,0.2-0.8,0.2c-0.3,0-0.6,0-0.8-0.1
				c-0.1,0-0.1-0.1-0.1-0.2v-3.5c0-0.1,0-0.1,0.1-0.2c0.1,0,0.3,0,0.6,0c0.6,0,1.7,0.5,1.7,2.1C180.7,50.4,180.4,50.9,180.1,51.2z"
				/>
			<path class="st2" d="M119.4,46.8c0,0-0.1,0-0.3,0.1H113c-0.3,0-0.4-0.2-0.5-0.2s-0.1,0.1-0.1,0.2c0,0.1-0.2,1.4-0.2,1.4l0,0l0,0
				c0,0.1,0.1,0.1,0.1,0.1s0.1,0,0.1-0.1l0,0l0,0l0,0c0-0.1,0.1-0.3,0.2-0.5c0.2-0.2,0.4-0.3,1.1-0.3h1.6c0,0,0,6.6-0.1,7.1
				c0,0.3-0.1,0.6-0.3,0.6c-0.1,0-0.2,0-0.4,0c-0.1,0-0.2,0-0.2,0.1s0.1,0.1,0.2,0.1h3.1c0.1,0,0.2,0,0.2-0.1s-0.1-0.1-0.2-0.1
				c-0.2,0-0.4,0-0.6,0c-0.3,0-0.4-0.3-0.4-0.6c-0.1-0.5-0.1-7.1-0.1-7.1h1.4c1,0,1.3,0.3,1.3,0.6v0.2c0,0.1,0.1,0.1,0.1,0.1
				l0.1-0.1C119.4,48.3,119.4,47.1,119.4,46.8C119.5,46.8,119.5,46.8,119.4,46.8L119.4,46.8z"/>
			<path class="st2" d="M200.6,46.8c0,0-0.1,0-0.3,0.1h-6.1c-0.3,0-0.4-0.2-0.5-0.2s-0.1,0.1-0.1,0.2c0,0.1-0.2,1.4-0.2,1.4l0,0l0,0
				c0,0.1,0.1,0.1,0.1,0.1s0.1,0,0.1-0.1l0,0l0,0l0,0c0-0.1,0.1-0.3,0.2-0.5c0.2-0.2,0.4-0.3,1.1-0.3h1.6c0,0,0,6.6-0.1,7.1
				c0,0.3-0.1,0.6-0.3,0.6c-0.1,0-0.2,0-0.4,0c-0.1,0-0.2,0-0.2,0.1s0.1,0.1,0.2,0.1h3.1c0.1,0,0.2,0,0.2-0.1s-0.1-0.1-0.2-0.1
				c-0.2,0-0.4,0-0.6,0c-0.3,0-0.4-0.3-0.4-0.6c-0.1-0.5-0.1-7.1-0.1-7.1h1.4c1,0,1.3,0.3,1.3,0.6v0.2c0,0.1,0.1,0.1,0.1,0.1
				c0.1,0,0.1-0.1,0.1-0.1S200.6,47.1,200.6,46.8C200.7,46.8,200.6,46.8,200.6,46.8L200.6,46.8z"/>
			<path class="st2" d="M237.7,43.8c-0.1,0-0.2,0.1-0.4,0.1h-8.2c-0.4,0-0.5-0.2-0.6-0.2s-0.1,0.1-0.2,0.3c0,0.1-0.3,1.8-0.3,1.8
				l0,0l0,0c0,0.1,0.1,0.2,0.2,0.2c0.1,0,0.1,0,0.1-0.1l0,0l0,0l0,0c0-0.1,0.1-0.4,0.3-0.6c0.2-0.3,0.6-0.4,1.4-0.4h2.2
				c0,0,0,8.8-0.1,9.5c0,0.4-0.1,0.8-0.4,0.8c-0.1,0-0.3,0.1-0.5,0.1s-0.2,0-0.2,0.1s0.1,0.2,0.3,0.2h4.1c0.2,0,0.3,0,0.3-0.2
				c0-0.1-0.1-0.1-0.2-0.1c-0.2,0-0.5,0-0.7-0.1c-0.4-0.1-0.5-0.4-0.6-0.8c-0.1-0.7-0.1-9.5-0.1-9.5h1.8c1.3,0,1.7,0.4,1.7,0.8V46
				c0,0.1,0.1,0.2,0.2,0.2c0.1,0,0.2-0.1,0.2-0.2c0,0,0-1.7,0-1.9C237.8,44,237.7,43.9,237.7,43.8L237.7,43.8z"/>
			<path class="st2" d="M135.4,53.9C135.4,53.8,135.3,53.8,135.4,53.9c-0.2-0.1-0.2-0.1-0.2,0l0,0c-0.1,0.5-0.4,0.8-0.6,0.9
				c-0.3,0.1-0.7,0.1-1,0.1c-1.1,0-1.1-0.1-1.2-0.9c0-0.3,0-2.7,0-2.7c0-0.1,0-0.1,0.1-0.1c0.3,0,1.3,0,1.5,0c0.4,0,0.6,0.2,0.6,0.4
				c0,0.1,0,0.3,0,0.4c0,0.1,0.1,0.1,0.1,0.1c0.1,0,0.1,0,0.1-0.1l0,0l0,0l0,0l0,0l0.2-1.7l0,0l0,0c0-0.1-0.1-0.1-0.1-0.1
				s-0.1,0-0.1,0.1l0,0l0,0c0,0,0,0-0.1,0.1c-0.1,0.1-0.3,0.1-0.5,0.2c-0.2,0-1.5,0-1.7,0c-0.1,0-0.1,0-0.1-0.1v-2.9
				c0-0.1,0-0.1,0.1-0.1c0.2,0,1.4,0,1.5,0c0.5,0.1,0.6,0.2,0.7,0.4c0.1,0.1,0,0.4,0,0.5s0.1,0.1,0.1,0.1c0.1,0,0.1,0,0.1-0.1
				c0-0.2,0.1-1.5,0.1-1.5c0-0.1,0-0.1-0.1-0.1c-0.1,0-0.1,0-0.2,0c-0.1,0-0.3,0-0.5,0h-4.3c-0.2,0-0.2,0-0.2,0.1s0.1,0.1,0.2,0.1
				c0.2,0,0.3,0,0.4,0c0.4,0.1,0.4,0.3,0.5,0.6c0,0.4,0,6.4,0,6.9c0,0.3-0.1,0.6-0.3,0.6c-0.1,0-0.2,0-0.4,0c-0.1,0-0.2,0-0.2,0.1
				s0.1,0.1,0.2,0.1h4.4c0.4,0,0.5,0,0.6-0.3C135.3,55,135.4,53.9,135.4,53.9L135.4,53.9L135.4,53.9L135.4,53.9z"/>
			<path class="st2" d="M170.3,47c0.2,0,0.3,0,0.4,0c0.4,0.1,0.4,0.3,0.5,0.6c0,0.4,0,6.4,0,6.9c0,0.3-0.1,0.6-0.3,0.6
				c-0.1,0-0.2,0-0.4,0c-0.1,0-0.2,0-0.2,0.1s0.1,0.1,0.2,0.1h4.4c0.4,0,0.5,0,0.6-0.3c0-0.2,0.2-1.4,0.2-1.4l0,0l0,0
				c0-0.1-0.1-0.1-0.1-0.1c-0.1,0-0.1,0-0.1,0.1l0,0c-0.1,0.5-0.4,0.8-0.6,0.9c-0.3,0.1-0.7,0.1-1,0.1c-1.1,0-1.1-0.1-1.2-0.9
				c0-0.3,0-2.7,0-2.7c0-0.1,0-0.1,0.1-0.1c0.3,0,1.3,0,1.5,0c0.4,0,0.6,0.2,0.6,0.4c0,0.1,0,0.3,0,0.4c0,0.1,0.1,0.1,0.1,0.1
				c0.1,0,0.1,0,0.1-0.1l0,0l0,0l0,0l0,0l0.1-1.7l0,0l0,0c0-0.1-0.1-0.1-0.1-0.1s-0.1,0-0.1,0.1l0,0l0,0c0,0,0,0-0.1,0.1
				s-0.3,0.1-0.5,0.2c-0.2,0-1.5,0-1.7,0c-0.1,0-0.1,0-0.1-0.1v-2.9c0-0.1,0-0.1,0.1-0.1c0.2,0,1.4,0,1.5,0c0.5,0.1,0.6,0.2,0.7,0.4
				c0.1,0.1,0,0.4,0,0.5s0.1,0.1,0.1,0.1c0.1,0,0.1,0,0.1-0.1c0-0.2,0.1-1.5,0.1-1.5c0-0.1,0-0.1-0.1-0.1s-0.1,0-0.2,0
				c-0.1,0-0.3,0-0.5,0h-6.6c-0.2,0-0.3,0-0.3,0.1s0.1,0.1,0.2,0.1c0.1,0,0.3,0,0.4,0.1c0.1,0,0.1,0.1,0.1,0.2c0,0.1,0,0.3-0.1,0.4
				c-0.3,0.8-1.7,4.4-2.1,5.7l0,0l-1.9-5.2c-0.2-0.4-0.2-0.7-0.2-0.9c0-0.1,0-0.2,0.1-0.2c0.1-0.1,0.2-0.1,0.4-0.1
				c0.1,0,0.2,0,0.2-0.1s-0.1-0.1-0.2-0.1h-8.5c-0.2,0-0.3,0-0.3,0.1s0,0.1,0.2,0.1c0.1,0,0.4,0,0.6,0.1c0.3,0.1,0.4,0.3,0.4,1
				l0.1,5.1h-0.1c-0.2-0.2-5.6-6.3-5.8-6.5s-0.3-0.4-0.4-0.4c-0.1,0-0.1,0.2-0.1,0.4l-0.1,7c0,1-0.1,1.3-0.3,1.4
				c-0.2,0-0.3,0.1-0.5,0.1c-0.1,0-0.2,0-0.2,0.1s0.1,0.1,0.2,0.1h2.5c0.2,0,0.2,0,0.2-0.1s-0.1-0.1-0.2-0.1c-0.2,0-0.4,0-0.6-0.1
				c-0.2-0.1-0.4-0.4-0.4-1.3l-0.1-5l0,0c0.2,0.2,5.1,5.9,5.8,6.6c0.1,0.1,0.2,0.3,0.4,0.3c0.1,0,0.1-0.1,0.1-0.4l0.1-7.4
				c0-0.6,0.1-0.9,0.4-1c0.1,0,0.3,0,0.4,0c0.1,0,0.4,0,0.5,0c0.2,0.1,0.3,0.2,0.4,0.6c0,0.4,0,6.5,0,6.9c0,0.3-0.1,0.5-0.3,0.6
				c-0.1,0-0.2,0-0.4,0c-0.1,0-0.2,0-0.2,0.1s0.1,0.1,0.2,0.1h3.1c0.1,0,0.2,0,0.2-0.1s-0.1-0.1-0.2-0.1c-0.2,0-0.4,0-0.6,0
				c-0.3,0-0.4-0.3-0.4-0.6c0-0.5,0-6.6,0-6.9c0-0.4,0.1-0.6,0.4-0.6c0.1,0,0.2,0,0.3,0s0.2,0,0.4,0c0.4,0.1,0.6,0.2,0.8,0.9l2.7,7
				c0.2,0.5,0.3,0.7,0.4,0.7c0.2,0,0.2-0.2,0.5-0.8c0.2-0.6,2.3-5.5,2.8-6.6c0.3-0.7,0.5-0.9,0.6-1C169.9,47.1,170.1,47.1,170.3,47
				L170.3,47z"/>
			<path class="st2" d="M222.8,51.1c0.3,0,1.3,0,1.5,0c0.4,0,0.5,0.2,0.6,0.5c0,0.1,0,0.3,0,0.4c0,0.1,0.1,0.1,0.1,0.1
				c0.1,0,0.1,0,0.1-0.1l0,0l0,0l0,0l0,0l0.1-1.7l0,0l0,0c0-0.1-0.1-0.1-0.1-0.1s-0.1,0-0.1,0.1l0,0l0,0c0,0,0,0-0.1,0.1
				s-0.3,0.1-0.5,0.2c-0.2,0-1.5,0-1.8,0c-0.1,0-0.1,0-0.1-0.1v-2.9c0-0.1,0-0.2,0.1-0.2h1.7c0.4,0,0.6,0.2,0.7,0.3
				c0.1,0.2,0.1,0.4,0.1,0.5s0.1,0.1,0.1,0.1c0.1,0,0.1,0,0.1-0.1l0,0l0,0l0,0c0,0,0.1-1.4,0.1-1.5s0-0.1-0.1-0.1s-0.1,0-0.2,0.1
				c-0.1,0-0.2,0-0.4,0h-4.4c-0.2,0-0.2,0-0.2,0.1s0.1,0.1,0.2,0.1c0.2,0,0.3,0,0.4,0c0.4,0.1,0.4,0.3,0.5,0.6c0,0.4,0,6.4,0,6.9
				c0,0.3-0.1,0.6-0.3,0.6c-0.1,0-0.2,0-0.4,0c-0.1,0-0.2,0-0.2,0.1s0.1,0.1,0.2,0.1h3c0.2,0,0.2,0,0.2-0.1s0-0.1-0.2-0.1
				s-0.4,0-0.5,0c-0.3,0-0.4-0.3-0.4-0.6c-0.1-0.5-0.1-3.4-0.1-3.4C222.7,51.2,222.7,51.1,222.8,51.1L222.8,51.1z"/>
			<path class="st2" d="M186.9,50.3l-0.3-0.2c-0.9-0.7-1.2-1.1-1.2-1.6c0-0.7,0.5-1.2,1.3-1.2c0.7,0,1,0.3,1.2,0.6s0.3,0.6,0.3,0.8
				v0.1l0,0l0,0l0,0l0,0c0,0,0,0,0.1,0s0.1-0.1,0.1-0.1v-1.5l0,0v-0.1c0-0.1-0.1-0.1-0.2-0.1c-0.3-0.1-0.7-0.2-1.4-0.2
				c-1.5,0-2.5,0.9-2.5,2.2c0,0.9,0.4,1.7,1.6,2.7l0.5,0.4c0.9,0.7,1.1,1.3,1.1,1.8c0,0.6-0.5,1.3-1.5,1.3c-0.7,0-1.3-0.3-1.6-1.2
				c-0.1-0.2-0.1-0.4-0.1-0.6v-0.1l0,0c0-0.1-0.1-0.1-0.1-0.1c-0.1,0-0.1,0.1-0.1,0.1L184,55c0,0.3,0,0.3,0.2,0.4
				c0.5,0.2,1,0.3,1.6,0.3s1.2-0.1,1.7-0.5c0.8-0.5,1-1.3,1-2C188.7,52.1,188.2,51.3,186.9,50.3L186.9,50.3z"/>
		</g>
	</g>
	<g id="Logo">
		<g id="_150">
			<path id="_1" class="st2" d="M291.7,26.5V26c0.1-0.1,5.8-3.9,6.9-4.7c0.3-0.2,0.6-0.4,0.9-0.4s0.2,0.4,0.2,0.7v21.1
				c0,1,0.4,1.4,1.4,1.6c0.5,0.1,1.5,0.3,1.8,0.3v0.5H292v-0.5c0.3,0,1.9-0.3,2.4-0.4c1-0.2,1.3-0.7,1.3-1.8V25L291.7,26.5
				L291.7,26.5z"/>
			<path id="_5" class="st2" d="M305.6,39.5c0,3.5,2.1,4.3,4.3,4.3c2.5,0,5.2-1.7,5.2-5.8c0-5-5.5-7.1-7.9-7.4
				c-0.4-0.1-0.6-0.2-0.6-0.6l0.7-8.3c0-0.3,0.2-0.4,0.6-0.4c0,0,8.1,0,8.7,0c0.3,0,1.1-0.2,1.3-0.2c0.3-0.1,0.3,0,0.3,0.4l-0.4,4.3
				h-0.5c0-1-0.3-1.8-2.8-1.8h-5.6c-0.1,0-0.1,0.1-0.1,0.1l-0.3,3.6c0,0.1,0,0.1,0.1,0.2c4.7,0.8,10.2,3.3,10.2,8.8
				c0,4.2-3.1,8.8-10.3,8.8c-1,0-2.2-0.2-3-0.6c-0.2-0.1-0.3-0.2-0.4-0.3v-5.1C305,39.5,305.6,39.5,305.6,39.5z"/>
			<path id="_0" class="st2" d="M329.7,45.5c-6.3,0-8.4-7.2-8.4-11.6c0-7.3,3-13,8.9-13c6.3,0,8.4,6.6,8.4,11.6
				C338.5,40.4,335.3,45.5,329.7,45.5L329.7,45.5z M329.5,22.3c-2.4,0-4.3,3.2-4.3,10.4c0,5.4,1.4,11.4,5.1,11.4
				c2.6,0,4.4-3.4,4.4-10.4C334.6,27.9,333.3,22.3,329.5,22.3z"/>
		</g>
		<g id="THE_UNIVERSITY_OF_TOKYO">
			<path class="st2" d="M283,41l0.3,1.5l-0.8,0.2l-0.9-3.9l0.8-0.2l0.3,1.5l5.5-1.2l0.2,1L283,41L283,41z"/>
			<path class="st2" d="M281.3,36.6v-1l2.8-0.1l-0.1-2.3l-2.8,0.1v-1l6.4-0.2v1l-2.8,0.1l0.1,2.3l2.8-0.1v1L281.3,36.6L281.3,36.6z"
				/>
			<path class="st2" d="M281.5,29.7l0.5-3.4l0.8,0.1l-0.4,2.4l1.8,0.3l0.3-1.9l0.8,0.1l-0.3,1.9l2.1,0.3l0.4-2.5l0.8,0.1l-0.6,3.5
				L281.5,29.7L281.5,29.7z"/>
			<path class="st2" d="M285.2,17.5l3.9,1.8c1.3,0.6,1.7,1.6,1.1,3c-0.6,1.2-1.6,1.7-2.9,1.1l-3.9-1.8l0.4-1l3.9,1.8
				c0.9,0.4,1.4,0.3,1.7-0.4c0.3-0.7,0.1-1.2-0.8-1.6l-3.8-1.8L285.2,17.5L285.2,17.5z"/>
			<path class="st2" d="M286.5,15.3l0.7-1l5,1l-3.7-2.8l0.6-0.8l5.2,3.8l-0.6,0.9l-5.4-1.1l4,3l-0.6,0.8L286.5,15.3L286.5,15.3z"/>
			<path class="st2" d="M290.8,10.1l0.7-0.7L296,14l-0.7,0.7L290.8,10.1z"/>
			<path class="st2" d="M295.9,5.7l0.8-0.6l2.4,6.2l-1,0.8L292.9,8l0.9-0.6l4.3,3.5C298,10.8,295.9,5.7,295.9,5.7z"/>
			<path class="st2" d="M298.3,4.2l3.1-1.5l0.4,0.7l-2.1,1.1l0.8,1.7l1.7-0.9l0.4,0.7l-1.7,0.9l0.9,1.9l2.3-1.1l0.4,0.7l-3.2,1.6
				L298.3,4.2L298.3,4.2z"/>
			<path class="st2" d="M303.5,1.9l1.8-0.5c1.2-0.4,2.2-0.1,2.5,1.1l0.1,0.2c0.3,0.9-0.1,1.5-0.7,1.9l2.2,2.4l-1.1,0.2L306.2,5
				l-0.6,0.2l0.8,2.6L305.3,8L303.5,1.9L303.5,1.9z M306.1,4.2c0.7-0.2,0.9-0.6,0.7-1.3l-0.1-0.2c-0.2-0.7-0.6-0.8-1.3-0.6l-0.8,0.2
				l0.6,2L306.1,4.2L306.1,4.2z"/>
			<path class="st2" d="M309.8,4.9l1-0.1c0.1,0.7,0.4,1.1,1.3,1c0.6-0.1,0.9-0.4,0.9-1.1c-0.1-0.7-0.4-0.9-1.3-1.1
				c-1.2-0.3-1.9-0.6-2-1.7c-0.1-1,0.6-1.8,1.7-1.9c1.2-0.1,1.9,0.4,2.1,1.5l-1,0.1c-0.1-0.7-0.5-0.9-1.1-0.8s-0.9,0.4-0.8,0.9
				s0.3,0.8,1.3,1c1.2,0.2,1.9,0.6,2.1,1.8c0.1,1.1-0.6,1.9-1.8,2.1C310.7,6.8,310,6.1,309.8,4.9L309.8,4.9z"/>
			<path class="st2" d="M315.5,0h1.1l-0.3,6.5h-1.1C315.3,6.4,315.5,0,315.5,0z"/>
			<path class="st2" d="M319.6,1.2L318.1,1l0.1-0.8l4,0.7l-0.1,0.8l-1.5-0.2L319.7,7l-1-0.2L319.6,1.2L319.6,1.2z"/>
			<path class="st2" d="M323.6,5l-0.5-4l1.1,0.4l0.3,2.9l2-2.2l1,0.3l-2.8,2.9L323.8,8l-1-0.3L323.6,5L323.6,5z"/>
			<path class="st2" d="M328.9,7.3l0.7-1.1c0.9-1.3,2.4-1.6,3.6-0.8c1.3,0.9,1.6,2.3,0.7,3.6l-0.7,1.1c-0.9,1.3-2.3,1.7-3.6,0.8
				C328.3,10.1,328,8.7,328.9,7.3z M332.3,9.6l0.7-1.1c0.6-0.9,0.6-1.8-0.2-2.4c-0.8-0.5-1.7-0.3-2.3,0.7l-0.7,1.1
				c-0.6,0.9-0.5,1.8,0.3,2.4C330.8,10.8,331.7,10.5,332.3,9.6L332.3,9.6z"/>
			<path class="st2" d="M337.1,8.6l2.4,2.4l-0.6,0.6l-1.6-1.7l-1.4,1.5l1.3,1.3l-0.6,0.6l-1.3-1.3l-1.9,1.9l-0.7-0.7L337.1,8.6
				L337.1,8.6z"/>
			<path class="st2" d="M341.8,15.3L341,14l0.7-0.4l2.2,3.4l-0.7,0.4l-0.8-1.3l-4.7,3l-0.6-0.9L341.8,15.3L341.8,15.3z"/>
			<path class="st2" d="M341.2,20l1.2-0.5c1.5-0.6,2.9,0,3.4,1.4c0.6,1.4,0,2.8-1.5,3.4l-1.2,0.5c-1.5,0.6-2.9,0.1-3.5-1.4
				C339.1,21.9,339.7,20.6,341.2,20z M342.7,23.8l1.2-0.5c1-0.4,1.5-1.2,1.1-2.1s-1.2-1.2-2.3-0.7l-1.2,0.5
				c-1.1,0.4-1.5,1.2-1.1,2.1C340.8,24,341.7,24.2,342.7,23.8L342.7,23.8z"/>
			<path class="st2" d="M347.3,25.7l0.2,1l-2.9,0.5l3.2,1.5l0.2,1.1l-3.4-1.6l-2.9,2.9l-0.2-1.2l2.7-2.6l-3,0.5l-0.2-1L347.3,25.7
				L347.3,25.7z"/>
			<path class="st2" d="M344.5,33.1l3.7-1.7v1.1l-2.7,1.2l2.7,1.2v1l-3.6-1.8h-2.8V33L344.5,33.1L344.5,33.1z"/>
			<path class="st2" d="M344.2,36.5l1.2,0.2c1.6,0.3,2.4,1.5,2.1,3.1c-0.3,1.5-1.5,2.3-3.1,2l-1.2-0.2c-1.6-0.3-2.4-1.5-2.1-3.1
				C341.4,37,342.7,36.2,344.2,36.5L344.2,36.5z M343.5,40.5l1.2,0.2c1.1,0.2,1.9-0.2,2.1-1.1c0.2-1-0.4-1.6-1.5-1.8l-1.2-0.2
				c-1.1-0.2-1.9,0.2-2.1,1.2C341.8,39.7,342.4,40.3,343.5,40.5L343.5,40.5z"/>
		</g>
		<g id="SINCE_1877">
			<path class="st2" d="M293.2,56.7l0.8,0.6c-0.4,0.6-0.5,1.1,0.2,1.6c0.4,0.4,1,0.3,1.4-0.1c0.4-0.5,0.3-0.9-0.2-1.7
				c-0.7-1-0.9-1.8-0.2-2.6c0.6-0.8,1.6-0.9,2.5-0.1c0.9,0.7,1.1,1.6,0.5,2.6l-0.8-0.6c0.4-0.6,0.3-1-0.2-1.4s-0.9-0.3-1.2,0.1
				c-0.3,0.4-0.3,0.8,0.2,1.6c0.7,1,1,1.8,0.2,2.8c-0.7,0.9-1.8,1-2.7,0.2C292.5,58.7,292.4,57.7,293.2,56.7L293.2,56.7z"/>
			<path class="st2" d="M300.2,56.3l0.9,0.5l-3.3,5.5l-0.9-0.5L300.2,56.3z"/>
			<path class="st2" d="M302.3,57.6l1.2,0.5l0.3,5.1l1.8-4.3l0.9,0.4l-2.4,5.9l-1-0.4l-0.3-5.5l-1.9,4.6l-0.9-0.4L302.3,57.6z"/>
			<path class="st2" d="M306.5,63.3l0.2-1.2c0.3-1.6,1.5-2.4,3-2.2c1.2,0.2,2,1,1.9,2.4l-1-0.2c0.1-0.8-0.2-1.3-1-1.4
				c-0.9-0.2-1.5,0.4-1.8,1.6l-0.2,1.2c-0.2,1.2,0.1,1.9,1.1,2.1c0.7,0.1,1.3-0.2,1.5-1l1,0.2c-0.4,1.4-1.4,1.9-2.7,1.6
				C306.9,66.1,306.2,64.9,306.5,63.3L306.5,63.3z"/>
			<path class="st2" d="M313,60.4l3.4,0.1v0.8H314v1.9h1.9V64H314v2.1h2.5v0.8l-3.6-0.1L313,60.4L313,60.4z"/>
			<path class="st2" d="M320.3,61l-1,1.1l-0.2-0.9l1-1.2l0.9-0.2l1.3,6.3l-1,0.2L320.3,61z"/>
			<path class="st2" d="M323.8,64l-0.1-0.2c-0.3-0.7,0-1.3,0.5-1.8c-0.6,0-1-0.3-1.3-0.9V61c-0.4-1,0.2-1.8,1.2-2.2s1.9-0.1,2.3,0.9
				v0.1c0.2,0.6,0.1,1.1-0.4,1.5c0.7,0,1.2,0.3,1.5,1l0.1,0.2c0.4,1.1-0.2,2-1.3,2.4C325.3,65.3,324.2,65.1,323.8,64L323.8,64z
				 M325.5,60.1L325.5,60.1c-0.2-0.6-0.6-0.8-1.1-0.6s-0.7,0.6-0.5,1.1v0.1c0.2,0.6,0.6,0.7,1.1,0.6
				C325.5,61.1,325.7,60.7,325.5,60.1z M326.6,62.8l-0.1-0.3c-0.2-0.6-0.7-0.8-1.3-0.6c-0.5,0.2-0.8,0.7-0.6,1.3l0.1,0.3
				c0.2,0.6,0.8,0.8,1.3,0.6C326.6,64,326.9,63.5,326.6,62.8L326.6,62.8z"/>
			<path class="st2" d="M329.1,57.4l-2.3,1.3l-0.4-0.7l3.4-1.9l0.1,0.1l1.3,6.5l-0.9,0.5L329.1,57.4L329.1,57.4z"/>
			<path class="st2" d="M332.9,54.7l-2,1.6l-0.5-0.7l3-2.4l0.1,0.1l2.4,6.2l-0.8,0.7L332.9,54.7L332.9,54.7z"/>
		</g>
		<path id="ginkgo_Yellow" class="st3" d="M285.8,50.4c0.2-0.1,0.5-0.2,0.8-0.4c0.4-0.2,0.6-0.3,0.7-0.3s0.1,0,0.1,0v0.1
			c0,0-0.2,0.2-0.6,0.5c-0.5,0.4-0.5,0.4-0.7,0.6c-0.2,0.1-0.2,0.2,0,0.4c0.1,0.1,0.7,0.9,2,1.3c0.7,0.2,1.6,0.3,2.7,0
			c0.1,0,0.1,0,0.2-0.1c0-0.1,0-0.1-0.1-0.3c-0.3-0.3-0.7-1.3-0.7-2.3s0.8-1.9,1.1-2.3c0.1-0.1,0.1-0.1,0.1-0.2c0,0-0.1,0-0.2,0
			c-0.3,0-0.9,0.1-1.7-0.1c-0.4-0.1-1.1-0.3-1.8-0.8c-0.6-0.4-1-0.9-1.1-1s-0.1-0.2-0.2-0.2s-0.1,0.1-0.2,0.2
			c-0.1,0.1-0.4,0.4-0.6,0.9s-0.4,1.1-0.5,1.7c-0.1,1.2,0.4,2.1,0.4,2.2c0,0.1,0.1,0.2,0.1,0.2C285.6,50.5,285.7,50.5,285.8,50.4
			L285.8,50.4z"/>
		<path id="ginkgo_Blue" class="st4" d="M343.3,50.9c-0.1-0.1-0.5-0.4-0.7-0.5c-0.3-0.2-0.6-0.4-0.6-0.4c-0.1,0-0.1-0.1-0.1-0.1
			s0.1-0.1,0.1,0s0.3,0.1,0.7,0.3c0.6,0.2,0.6,0.2,0.9,0.3c0.2,0.1,0.3,0,0.3-0.2c0-0.1,0.4-1.1,0.2-2.4c-0.1-0.7-0.5-1.6-1.3-2.4
			c-0.1,0-0.1-0.1-0.2-0.1s-0.1,0.1-0.2,0.2c-0.2,0.4-0.8,1.2-1.7,1.7c-0.9,0.5-2,0.2-2.5,0.1c-0.1,0-0.2,0-0.2,0s0,0.1,0,0.2
			c0.1,0.2,0.5,0.7,0.7,1.6c0.1,0.4,0.2,1.1,0.1,1.9c-0.1,0.8-0.3,1.3-0.4,1.5c0,0.1-0.1,0.2,0,0.3c0,0.1,0.1,0.1,0.3,0.1
			c0.1,0,0.5,0.1,1.1,0.1c0.5,0,1.2-0.1,1.7-0.4c1.1-0.5,1.6-1.3,1.7-1.4c0.1-0.1,0.1-0.2,0.1-0.2C343.4,51,343.4,51,343.3,50.9
			L343.3,50.9z"/>
	</g>
</g>
</svg>
