<svg xmlns="http://www.w3.org/2000/svg" viewBox="0 0 48 48"><defs><style>.cls-1{fill:#1877f2;}.cls-2{fill:#fff;}</style></defs><title>facebook</title><g id="data"><path class="cls-1" d="M48,24A24,24,0,1,0,20.25,47.71V30.94H14.16V24h6.09V18.71c0-6,3.58-9.33,9.07-9.33a37.64,37.64,0,0,1,5.37.46v5.91h-3c-3,0-3.91,1.85-3.91,3.75V24h6.66l-1.07,6.94H27.75V47.71A24,24,0,0,0,48,24Z"/><path class="cls-2" d="M33.34,30.94,34.41,24H27.75V19.5c0-1.9.93-3.75,3.91-3.75h3V9.84a37.64,37.64,0,0,0-5.37-.46c-5.49,0-9.07,3.32-9.07,9.33V24H14.16v6.94h6.09V47.71a24.39,24.39,0,0,0,7.5,0V30.94Z"/></g></svg>