<svg xmlns="http://www.w3.org/2000/svg" width="396" height="36" viewBox="0 0 396 36"><path d="M393.528 21.547c-1.909 4.96-8.5 6.494-15.614 6.494s-11.685-1.543-10.623-6.494h9.043c-.234 1.327.569 2.169 3.243 2.169s4.4-.865 4.9-2.169c1.246-3.238-16.652-.074-13.8-7.487 1.594-4.152 7.875-6.1 14.958-6.1s11.1 1.529 10.257 6.094h-8.873c.141-1.221-.235-2.146-2.9-2.146s-4.1.943-4.565 2.15c-1.271 3.309 16.815.09 13.974 7.487M235.207 27.48h-9.042l7.278-18.942h9.045zm68.428 0h-9.044l7.279-18.942h9.045zm58.278 0h-21.989L347.2 8.538h22l-1.4 3.635h-12.95L353.382 16h10.769l-1.394 3.632h-10.773l-1.472 3.839h12.944zm-179.761 0h-7.318L168.7 16.29l-4.3 11.19h-7.3l7.283-18.942h8.5l5.417 9.954 3.827-9.954h7.314zm152.159 0H327l-6.14-11.19-4.3 11.19h-7.3l7.277-18.942h8.5l5.419 9.954 3.825-9.954h7.316zM72.3 21.14c-2.478 6.44-8.582 6.975-12.935 6.975a29.131 29.131 0 0 1-6.283-.635l1.541-4.018c4.145.48 7.691.119 9.078-3.488l4.4-11.436h9.047L72.3 21.14m51.257-12.6H109.49l-7.281 18.94h9.046l2.645-6.88h5.027c8.361 0 12.864-2.232 14.322-6.028s-1.323-6.038-9.692-6.038m.644 6.038a4.261 4.261 0 0 1-3.88 2.394h-5.025l1.842-4.8h5.034c1.649 0 2.563 1.026 2.029 2.406m137.97-6.038H248.1l-7.279 18.946h9.042l2.645-6.876h2.734l1.788 6.876h9.87l-2.413-7.569c4-.927 6.384-2.771 7.371-5.335 1.457-3.8-1.326-6.038-9.691-6.038m.643 6.038a4.265 4.265 0 0 1-3.883 2.394h-5.022l1.843-4.8h5.031c1.646 0 2.562 1.026 2.031 2.406m19.171 8.89l5.749-14.928h-9.046l-7.28 18.942h20.536l1.543-4.014h-11.5zM98.106 8.538h-8.088a3.915 3.915 0 0 0-2.782 1.4L72.081 27.48h7.471l3.014-3.727h8.164l.144 3.727h9.046L98.106 8.538M85.5 20.112l4.869-6.056.223 6.056H85.5zm67.484-11.573H144.9a3.913 3.913 0 0 0-2.782 1.4L126.961 27.48h7.47l3.011-3.727h8.169l.145 3.727h9.044l-1.812-18.942m-12.6 11.573l4.87-6.056.225 6.056h-5.1zM222.05 8.538h-8.089a3.921 3.921 0 0 0-2.784 1.4L196.024 27.48h7.476l3.008-3.727h8.17l.143 3.727h9.046L222.05 8.538m-12.6 11.573l4.868-6.056.224 6.056h-5.092z"/><path fill="#c00" d="M35.982 19.586a18.332 18.332 0 0 0-.089-3.983c0-.023-.027-.023-.032 0a10.745 10.745 0 0 1-3.961 6.066.021.021 0 0 1-.027-.033 13.109 13.109 0 0 0 3.633-8.036 17.675 17.675 0 0 0-1.825-4.525c-.012-.018-.033-.014-.028.009a12.342 12.342 0 0 1-3.119 9.986.023.023 0 0 1-.037-.028 13.982 13.982 0 0 0 2.032-11.731 18.043 18.043 0 0 0-29 0 13.993 13.993 0 0 0 2.03 11.731.023.023 0 1 1-.035.028 12.324 12.324 0 0 1-3.117-9.986c0-.023-.019-.028-.028-.009A17.743 17.743 0 0 0 .547 13.6a13.164 13.164 0 0 0 3.636 8.039.021.021 0 0 1-.025.033A10.758 10.758 0 0 1 .195 15.6c0-.023-.028-.023-.03 0a18.294 18.294 0 0 0-.089 3.983 10.877 10.877 0 0 0 3.3 4.736.023.023 0 0 1-.022.04 9.807 9.807 0 0 1-2.937-2.676c-.011-.017-.029-.01-.025.008a18.03 18.03 0 0 0 35.281 0c0-.018-.012-.025-.023-.008a9.822 9.822 0 0 1-2.94 2.676.023.023 0 0 1-.022-.04 10.843 10.843 0 0 0 3.294-4.733zM11.339 31.32a7.91 7.91 0 0 1-1.708-.169l.42-1.091c1.125.131 2.087.034 2.466-.951l1.194-3.1h2.455l-1.313 3.418c-.675 1.752-2.332 1.893-3.514 1.893zm8.411-.169l-.036-1.016h-2.221l-.818 1.016h-2.028l4.117-4.764a1.046 1.046 0 0 1 .754-.379h2.2l.493 5.143H19.75zm8.7 0h-5.578l1.976-5.143H27.3l-1.562 4.054h3.124zM26.18 20.28c-3.687 3.585-9.191 1.3-8.632-3.1.43-3.39 4.593-6.77 7.747-8.6a.025.025 0 0 0 0-.04 28.465 28.465 0 0 1-1.822-1.943 3.628 3.628 0 0 0-5.792.1l-9.067.843a.027.027 0 0 0 0 .053l9.72.56c1.722.1 2.284 1.66.621 2.918-6.173 4.672-7.27 9.615-5.891 13.531a.027.027 0 0 1-.048.019A7.919 7.919 0 0 1 11.8 21.8a11.6 11.6 0 1 1 14.38-1.52zm-7.886 8.87h1.381l-.06-1.65z"/></svg>